<svg xmlns="http://www.w3.org/2000/svg" width="930" height="125" baseProfile="tiny" version="1.2" xmlns:xlink="http://www.w3.org/1999/xlink" xmlns:ev="http://www.w3.org/2001/xml-events" viewBox="0,0,930,125"><g><path d="m 9.421875,-8.5h -18.8125 l -2.96875,8.5 h -12.09375 l 17.28125,-46.65625 H 7.171875 L 24.453125,0 h -12.09375 z m -15.8125,-8.65625 h 12.78125 l -6.375,-18.5625 z" fill="green" transform="translate(55,100) scale(1,0.03961852175865242)"/><path d="m 21.546875,-3.46875 q -4.5,2.1875 -9.34375,3.28125 -4.84375,1.09375 -10,1.09375 -11.65625,0 -18.46875,-6.5 -6.8125,-6.53125 -6.8125,-17.6875 0,-11.28125 6.9375,-17.75 6.9375,-6.46875 19,-6.46875 4.65625,0 8.90625,0.875 4.28125,0.875 8.0625,2.59375 v 9.65625 q -3.90625,-2.21875 -7.78125,-3.3125 -3.84375,-1.09375 -7.71875,-1.09375 -7.1875,0 -11.09375,4.03125 -3.875,4 -3.875,11.46875 0,7.40625 3.75,11.4375 3.75,4.03125 10.65625,4.03125 1.875,0 3.46875,-0.21875 1.625,-0.25 2.90625,-0.75 v -9.0625 h -7.34375 v -8.0625 h 18.75 z" fill="orange" transform="translate(55,98.01907391206738) scale(1,0.03961852175865242)"/><path d="m 19.390625,-2.5625 q -3.3125,1.71875 -6.90625,2.59375 -3.59375,0.875 -7.5,0.875 -11.65625,0 -18.46875,-6.5 -6.8125,-6.53125 -6.8125,-17.6875 0,-11.1875 6.8125,-17.6875 6.8125,-6.53125 18.46875,-6.53125 3.90625,0 7.5,0.875 3.59375,0.875 6.90625,2.59375 v 9.65625 q -3.34375,-2.28125 -6.59375,-3.34375 -3.25,-1.0625 -6.84375,-1.0625 -6.4375,0 -10.125,4.125 -3.6875,4.125 -3.6875,11.375 0,7.21875 3.6875,11.34375 3.6875,4.125 10.125,4.125 3.59375,0 6.84375,-1.0625 3.25,-1.0625 6.59375,-3.34375 z" fill="blue" transform="translate(55,96.03814782413477) scale(1,0.11885556527595727)"/><path d="m -21.515625,-46.65625 h 43 v 9.09375 H 6.015625 V 0 h -12.03125 v -37.5625 h -15.5 z" fill="red" transform="translate(55,90.0953695603369) scale(1,0.8319889569317008)"/><path d="m 9.421875,-8.5h -18.8125 l -2.96875,8.5 h -12.09375 l 17.28125,-46.65625 H 7.171875 L 24.453125,0 h -12.09375 z m -15.8125,-8.65625 h 12.78125 l -6.375,-18.5625 z" fill="green" transform="translate(105,100) scale(1,0.06787717762233687)"/><path d="m 19.390625,-2.5625 q -3.3125,1.71875 -6.90625,2.59375 -3.59375,0.875 -7.5,0.875 -11.65625,0 -18.46875,-6.5 -6.8125,-6.53125 -6.8125,-17.6875 0,-11.1875 6.8125,-17.6875 6.8125,-6.53125 18.46875,-6.53125 3.90625,0 7.5,0.875 3.59375,0.875 6.90625,2.59375 v 9.65625 q -3.34375,-2.28125 -6.59375,-3.34375 -3.25,-1.0625 -6.84375,-1.0625 -6.4375,0 -10.125,4.125 -3.6875,4.125 -3.6875,11.375 0,7.21875 3.6875,11.34375 3.6875,4.125 10.125,4.125 3.59375,0 6.84375,-1.0625 3.25,-1.0625 6.59375,-3.34375 z" fill="blue" transform="translate(105,96.60614111888316) scale(1,1.6969294405584219)"/><path d="m 21.546875,-3.46875 q -4.5,2.1875 -9.34375,3.28125 -4.84375,1.09375 -10,1.09375 -11.65625,0 -18.46875,-6.5 -6.8125,-6.53125 -6.8125,-17.6875 0,-11.28125 6.9375,-17.75 6.9375,-6.46875 19,-6.46875 4.65625,0 8.90625,0.875 4.28125,0.875 8.0625,2.59375 v 9.65625 q -3.90625,-2.21875 -7.78125,-3.3125 -3.84375,-1.09375 -7.71875,-1.09375 -7.1875,0 -11.09375,4.03125 -3.875,4 -3.875,11.46875 0,7.40625 3.75,11.4375 3.75,4.03125 10.65625,4.03125 1.875,0 3.46875,-0.21875 1.625,-0.25 2.90625,-0.75 v -9.0625 h -7.34375 v -8.0625 h 18.75 z" fill="orange" transform="translate(155,100) scale(1,2)"/><path d="m 19.390625,-2.5625 q -3.3125,1.71875 -6.90625,2.59375 -3.59375,0.875 -7.5,0.875 -11.65625,0 -18.46875,-6.5 -6.8125,-6.53125 -6.8125,-17.6875 0,-11.1875 6.8125,-17.6875 6.8125,-6.53125 18.46875,-6.53125 3.90625,0 7.5,0.875 3.59375,0.875 6.90625,2.59375 v 9.65625 q -3.34375,-2.28125 -6.59375,-3.34375 -3.25,-1.0625 -6.84375,-1.0625 -6.4375,0 -10.125,4.125 -3.6875,4.125 -3.6875,11.375 0,7.21875 3.6875,11.34375 3.6875,4.125 10.125,4.125 3.59375,0 6.84375,-1.0625 3.25,-1.0625 6.59375,-3.34375 z" fill="blue" transform="translate(205,100) scale(1,0.2124027392801902)"/><path d="m 9.421875,-8.5h -18.8125 l -2.96875,8.5 h -12.09375 l 17.28125,-46.65625 H 7.171875 L 24.453125,0 h -12.09375 z m -15.8125,-8.65625 h 12.78125 l -6.375,-18.5625 z" fill="green" transform="translate(205,89.3798630359905) scale(1,1.1682150660410462)"/><path d="m -21.515625,-46.65625 h 43 v 9.09375 H 6.015625 V 0 h -12.03125 v -37.5625 h -15.5 z" fill="red" transform="translate(255,100) scale(1,0.2124027392801902)"/><path d="m 9.421875,-8.5h -18.8125 l -2.96875,8.5 h -12.09375 l 17.28125,-46.65625 H 7.171875 L 24.453125,0 h -12.09375 z m -15.8125,-8.65625 h 12.78125 l -6.375,-18.5625 z" fill="green" transform="translate(255,89.3798630359905) scale(1,1.1682150660410462)"/><path d="m -21.515625,-46.65625 h 43 v 9.09375 H 6.015625 V 0 h -12.03125 v -37.5625 h -15.5 z" fill="red" transform="translate(305,100) scale(1,0.04117865340312968)"/><path d="m 9.421875,-8.5h -18.8125 l -2.96875,8.5 h -12.09375 l 17.28125,-46.65625 H 7.171875 L 24.453125,0 h -12.09375 z m -15.8125,-8.65625 h 12.78125 l -6.375,-18.5625 z" fill="green" transform="translate(305,97.94106732984352) scale(1,0.2058932670156484)"/><path d="m 19.390625,-2.5625 q -3.3125,1.71875 -6.90625,2.59375 -3.59375,0.875 -7.5,0.875 -11.65625,0 -18.46875,-6.5 -6.8125,-6.53125 -6.8125,-17.6875 0,-11.1875 6.8125,-17.6875 6.8125,-6.53125 18.46875,-6.53125 3.90625,0 7.5,0.875 3.59375,0.875 6.90625,2.59375 v 9.65625 q -3.34375,-2.28125 -6.59375,-3.34375 -3.25,-1.0625 -6.84375,-1.0625 -6.4375,0 -10.125,4.125 -3.6875,4.125 -3.6875,11.375 0,7.21875 3.6875,11.34375 3.6875,4.125 10.125,4.125 3.59375,0 6.84375,-1.0625 3.25,-1.0625 6.59375,-3.34375 z" fill="blue" transform="translate(305,87.6464039790611) scale(1,0.8235730680625936)"/><path d="m -21.515625,-46.65625 h 43 v 9.09375 H 6.015625 V 0 h -12.03125 v -37.5625 h -15.5 z" fill="red" transform="translate(355,100) scale(1,0.04441898403355854)"/><path d="m 21.546875,-3.46875 q -4.5,2.1875 -9.34375,3.28125 -4.84375,1.09375 -10,1.09375 -11.65625,0 -18.46875,-6.5 -6.8125,-6.53125 -6.8125,-17.6875 0,-11.28125 6.9375,-17.75 6.9375,-6.46875 19,-6.46875 4.65625,0 8.90625,0.875 4.28125,0.875 8.0625,2.59375 v 9.65625 q -3.90625,-2.21875 -7.78125,-3.3125 -3.84375,-1.09375 -7.71875,-1.09375 -7.1875,0 -11.09375,4.03125 -3.875,4 -3.875,11.46875 0,7.40625 3.75,11.4375 3.75,4.03125 10.65625,4.03125 1.875,0 3.46875,-0.21875 1.625,-0.25 2.90625,-0.75 v -9.0625 h -7.34375 v -8.0625 h 18.75 z" fill="orange" transform="translate(355,97.77905079832207) scale(1,0.17767593613423416)"/><path d="m 9.421875,-8.5h -18.8125 l -2.96875,8.5 h -12.09375 l 17.28125,-46.65625 H 7.171875 L 24.453125,0 h -12.09375 z m -15.8125,-8.65625 h 12.78125 l -6.375,-18.5625 z" fill="green" transform="translate(355,88.89525399161036) scale(1,0.9327986647047293)"/><path d="m 9.421875,-8.5h -18.8125 l -2.96875,8.5 h -12.09375 l 17.28125,-46.65625 H 7.171875 L 24.453125,0 h -12.09375 z m -15.8125,-8.65625 h 12.78125 l -6.375,-18.5625 z" fill="green" transform="translate(405,100) scale(1,0.1252463276253722)"/><path d="m -21.515625,-46.65625 h 43 v 9.09375 H 6.015625 V 0 h -12.03125 v -37.5625 h -15.5 z" fill="red" transform="translate(405,93.7376836187314) scale(1,0.1252463276253722)"/><path d="m 19.390625,-2.5625 q -3.3125,1.71875 -6.90625,2.59375 -3.59375,0.875 -7.5,0.875 -11.65625,0 -18.46875,-6.5 -6.8125,-6.53125 -6.8125,-17.6875 0,-11.1875 6.8125,-17.6875 6.8125,-6.53125 18.46875,-6.53125 3.90625,0 7.5,0.875 3.59375,0.875 6.90625,2.59375 v 9.65625 q -3.34375,-2.28125 -6.59375,-3.34375 -3.25,-1.0625 -6.84375,-1.0625 -6.4375,0 -10.125,4.125 -3.6875,4.125 -3.6875,11.375 0,7.21875 3.6875,11.34375 3.6875,4.125 10.125,4.125 3.59375,0 6.84375,-1.0625 3.25,-1.0625 6.59375,-3.34375 z" fill="blue" transform="translate(405,87.47536723746279) scale(1,0.2922414311258684)"/><path d="m 21.546875,-3.46875 q -4.5,2.1875 -9.34375,3.28125 -4.84375,1.09375 -10,1.09375 -11.65625,0 -18.46875,-6.5 -6.8125,-6.53125 -6.8125,-17.6875 0,-11.28125 6.9375,-17.75 6.9375,-6.46875 19,-6.46875 4.65625,0 8.90625,0.875 4.28125,0.875 8.0625,2.59375 v 9.65625 q -3.90625,-2.21875 -7.78125,-3.3125 -3.84375,-1.09375 -7.71875,-1.09375 -7.1875,0 -11.09375,4.03125 -3.875,4 -3.875,11.46875 0,7.40625 3.75,11.4375 3.75,4.03125 10.65625,4.03125 1.875,0 3.46875,-0.21875 1.625,-0.25 2.90625,-0.75 v -9.0625 h -7.34375 v -8.0625 h 18.75 z" fill="orange" transform="translate(455,100) scale(1,0.019819834027763935)"/><path d="m 19.390625,-2.5625 q -3.3125,1.71875 -6.90625,2.59375 -3.59375,0.875 -7.5,0.875 -11.65625,0 -18.46875,-6.5 -6.8125,-6.53125 -6.8125,-17.6875 0,-11.1875 6.8125,-17.6875 6.8125,-6.53125 18.46875,-6.53125 3.90625,0 7.5,0.875 3.59375,0.875 6.90625,2.59375 v 9.65625 q -3.34375,-2.28125 -6.59375,-3.34375 -3.25,-1.0625 -6.84375,-1.0625 -6.4375,0 -10.125,4.125 -3.6875,4.125 -3.6875,11.375 0,7.21875 3.6875,11.34375 3.6875,4.125 10.125,4.125 3.59375,0 6.84375,-1.0625 3.25,-1.0625 6.59375,-3.34375 z" fill="blue" transform="translate(455,99.0090082986118) scale(1,0.07927933611105574)"/><path d="m -21.515625,-46.65625 h 43 v 9.09375 H 6.015625 V 0 h -12.03125 v -37.5625 h -15.5 z" fill="red" transform="translate(455,95.04504149305902) scale(1,0.09909917013881968)"/><path d="m 9.421875,-8.5h -18.8125 l -2.96875,8.5 h -12.09375 l 17.28125,-46.65625 H 7.171875 L 24.453125,0 h -12.09375 z m -15.8125,-8.65625 h 12.78125 l -6.375,-18.5625 z" fill="green" transform="translate(455,90.09008298611803) scale(1,0.31711734444422296)"/><path d="m 19.390625,-2.5625 q -3.3125,1.71875 -6.90625,2.59375 -3.59375,0.875 -7.5,0.875 -11.65625,0 -18.46875,-6.5 -6.8125,-6.53125 -6.8125,-17.6875 0,-11.1875 6.8125,-17.6875 6.8125,-6.53125 18.46875,-6.53125 3.90625,0 7.5,0.875 3.59375,0.875 6.90625,2.59375 v 9.65625 q -3.34375,-2.28125 -6.59375,-3.34375 -3.25,-1.0625 -6.84375,-1.0625 -6.4375,0 -10.125,4.125 -3.6875,4.125 -3.6875,11.375 0,7.21875 3.6875,11.34375 3.6875,4.125 10.125,4.125 3.59375,0 6.84375,-1.0625 3.25,-1.0625 6.59375,-3.34375 z" fill="blue" transform="translate(505,100) scale(1,0.2124027392801902)"/><path d="m -21.515625,-46.65625 h 43 v 9.09375 H 6.015625 V 0 h -12.03125 v -37.5625 h -15.5 z" fill="red" transform="translate(505,89.3798630359905) scale(1,1.1682150660410462)"/><path d="m 9.421875,-8.5h -18.8125 l -2.96875,8.5 h -12.09375 l 17.28125,-46.65625 H 7.171875 L 24.453125,0 h -12.09375 z m -15.8125,-8.65625 h 12.78125 l -6.375,-18.5625 z" fill="green" transform="translate(555,100) scale(1,0.17123689269144837)"/><path d="m 21.546875,-3.46875 q -4.5,2.1875 -9.34375,3.28125 -4.84375,1.09375 -10,1.09375 -11.65625,0 -18.46875,-6.5 -6.8125,-6.53125 -6.8125,-17.6875 0,-11.28125 6.9375,-17.75 6.9375,-6.46875 19,-6.46875 4.65625,0 8.90625,0.875 4.28125,0.875 8.0625,2.59375 v 9.65625 q -3.90625,-2.21875 -7.78125,-3.3125 -3.84375,-1.09375 -7.71875,-1.09375 -7.1875,0 -11.09375,4.03125 -3.875,4 -3.875,11.46875 0,7.40625 3.75,11.4375 3.75,4.03125 10.65625,4.03125 1.875,0 3.46875,-0.21875 1.625,-0.25 2.90625,-0.75 v -9.0625 h -7.34375 v -8.0625 h 18.75 z" fill="orange" transform="translate(555,91.43815536542758) scale(1,1.312816177301104)"/><path d="m 9.421875,-8.5h -18.8125 l -2.96875,8.5 h -12.09375 l 17.28125,-46.65625 H 7.171875 L 24.453125,0 h -12.09375 z m -15.8125,-8.65625 h 12.78125 l -6.375,-18.5625 z" fill="green" transform="translate(605,100) scale(1,0.17123689269144837)"/><path d="m -21.515625,-46.65625 h 43 v 9.09375 H 6.015625 V 0 h -12.03125 v -37.5625 h -15.5 z" fill="red" transform="translate(605,91.43815536542758) scale(1,1.312816177301104)"/><path d="m 21.546875,-3.46875 q -4.5,2.1875 -9.34375,3.28125 -4.84375,1.09375 -10,1.09375 -11.65625,0 -18.46875,-6.5 -6.8125,-6.53125 -6.8125,-17.6875 0,-11.28125 6.9375,-17.75 6.9375,-6.46875 19,-6.46875 4.65625,0 8.90625,0.875 4.28125,0.875 8.0625,2.59375 v 9.65625 q -3.90625,-2.21875 -7.78125,-3.3125 -3.84375,-1.09375 -7.71875,-1.09375 -7.1875,0 -11.09375,4.03125 -3.875,4 -3.875,11.46875 0,7.40625 3.75,11.4375 3.75,4.03125 10.65625,4.03125 1.875,0 3.46875,-0.21875 1.625,-0.25 2.90625,-0.75 v -9.0625 h -7.34375 v -8.0625 h 18.75 z" fill="orange" transform="translate(655,100) scale(1,0.17123689269144837)"/><path d="m -21.515625,-46.65625 h 43 v 9.09375 H 6.015625 V 0 h -12.03125 v -37.5625 h -15.5 z" fill="red" transform="translate(655,91.43815536542758) scale(1,1.312816177301104)"/><path d="m -21.515625,-46.65625 h 43 v 9.09375 H 6.015625 V 0 h -12.03125 v -37.5625 h -15.5 z" fill="red" transform="translate(705,100) scale(1,0.12375049510544188)"/><path d="m 19.390625,-2.5625 q -3.3125,1.71875 -6.90625,2.59375 -3.59375,0.875 -7.5,0.875 -11.65625,0 -18.46875,-6.5 -6.8125,-6.53125 -6.8125,-17.6875 0,-11.1875 6.8125,-17.6875 6.8125,-6.53125 18.46875,-6.53125 3.90625,0 7.5,0.875 3.59375,0.875 6.90625,2.59375 v 9.65625 q -3.34375,-2.28125 -6.59375,-3.34375 -3.25,-1.0625 -6.84375,-1.0625 -6.4375,0 -10.125,4.125 -3.6875,4.125 -3.6875,11.375 0,7.21875 3.6875,11.34375 3.6875,4.125 10.125,4.125 3.59375,0 6.84375,-1.0625 3.25,-1.0625 6.59375,-3.34375 z" fill="blue" transform="translate(705,93.8124752447279) scale(1,1.4850059412653025)"/><path d="m -21.515625,-46.65625 h 43 v 9.09375 H 6.015625 V 0 h -12.03125 v -37.5625 h -15.5 z" fill="red" transform="translate(755,100) scale(1,0.06787717762233687)"/><path d="m 21.546875,-3.46875 q -4.5,2.1875 -9.34375,3.28125 -4.84375,1.09375 -10,1.09375 -11.65625,0 -18.46875,-6.5 -6.8125,-6.53125 -6.8125,-17.6875 0,-11.28125 6.9375,-17.75 6.9375,-6.46875 19,-6.46875 4.65625,0 8.90625,0.875 4.28125,0.875 8.0625,2.59375 v 9.65625 q -3.90625,-2.21875 -7.78125,-3.3125 -3.84375,-1.09375 -7.71875,-1.09375 -7.1875,0 -11.09375,4.03125 -3.875,4 -3.875,11.46875 0,7.40625 3.75,11.4375 3.75,4.03125 10.65625,4.03125 1.875,0 3.46875,-0.21875 1.625,-0.25 2.90625,-0.75 v -9.0625 h -7.34375 v -8.0625 h 18.75 z" fill="orange" transform="translate(755,96.60614111888316) scale(1,1.6969294405584219)"/><path d="m 9.421875,-8.5h -18.8125 l -2.96875,8.5 h -12.09375 l 17.28125,-46.65625 H 7.171875 L 24.453125,0 h -12.09375 z m -15.8125,-8.65625 h 12.78125 l -6.375,-18.5625 z" fill="green" transform="translate(805,100) scale(1,2)"/><path d="m 19.390625,-2.5625 q -3.3125,1.71875 -6.90625,2.59375 -3.59375,0.875 -7.5,0.875 -11.65625,0 -18.46875,-6.5 -6.8125,-6.53125 -6.8125,-17.6875 0,-11.1875 6.8125,-17.6875 6.8125,-6.53125 18.46875,-6.53125 3.90625,0 7.5,0.875 3.59375,0.875 6.90625,2.59375 v 9.65625 q -3.34375,-2.28125 -6.59375,-3.34375 -3.25,-1.0625 -6.84375,-1.0625 -6.4375,0 -10.125,4.125 -3.6875,4.125 -3.6875,11.375 0,7.21875 3.6875,11.34375 3.6875,4.125 10.125,4.125 3.59375,0 6.84375,-1.0625 3.25,-1.0625 6.59375,-3.34375 z" fill="blue" transform="translate(855,100) scale(1,0.011806628137218198)"/><path d="m 21.546875,-3.46875 q -4.5,2.1875 -9.34375,3.28125 -4.84375,1.09375 -10,1.09375 -11.65625,0 -18.46875,-6.5 -6.8125,-6.53125 -6.8125,-17.6875 0,-11.28125 6.9375,-17.75 6.9375,-6.46875 19,-6.46875 4.65625,0 8.90625,0.875 4.28125,0.875 8.0625,2.59375 v 9.65625 q -3.90625,-2.21875 -7.78125,-3.3125 -3.84375,-1.09375 -7.71875,-1.09375 -7.1875,0 -11.09375,4.03125 -3.875,4 -3.875,11.46875 0,7.40625 3.75,11.4375 3.75,4.03125 10.65625,4.03125 1.875,0 3.46875,-0.21875 1.625,-0.25 2.90625,-0.75 v -9.0625 h -7.34375 v -8.0625 h 18.75 z" fill="orange" transform="translate(855,99.40966859313909) scale(1,0.05903314068609099)"/><path d="m 9.421875,-8.5h -18.8125 l -2.96875,8.5 h -12.09375 l 17.28125,-46.65625 H 7.171875 L 24.453125,0 h -12.09375 z m -15.8125,-8.65625 h 12.78125 l -6.375,-18.5625 z" fill="green" transform="translate(855,96.45801155883454) scale(1,0.10625965323496377)"/><path d="m -21.515625,-46.65625 h 43 v 9.09375 H 6.015625 V 0 h -12.03125 v -37.5625 h -15.5 z" fill="red" transform="translate(855,91.14502889708635) scale(1,0.12987290950940017)"/><path d="m 21.546875,-3.46875 q -4.5,2.1875 -9.34375,3.28125 -4.84375,1.09375 -10,1.09375 -11.65625,0 -18.46875,-6.5 -6.8125,-6.53125 -6.8125,-17.6875 0,-11.28125 6.9375,-17.75 6.9375,-6.46875 19,-6.46875 4.65625,0 8.90625,0.875 4.28125,0.875 8.0625,2.59375 v 9.65625 q -3.90625,-2.21875 -7.78125,-3.3125 -3.84375,-1.09375 -7.71875,-1.09375 -7.1875,0 -11.09375,4.03125 -3.875,4 -3.875,11.46875 0,7.40625 3.75,11.4375 3.75,4.03125 10.65625,4.03125 1.875,0 3.46875,-0.21875 1.625,-0.25 2.90625,-0.75 v -9.0625 h -7.34375 v -8.0625 h 18.75 z" fill="orange" transform="translate(905,100) scale(1,0.06930511528473027)"/><path d="m -21.515625,-46.65625 h 43 v 9.09375 H 6.015625 V 0 h -12.03125 v -37.5625 h -15.5 z" fill="red" transform="translate(905,96.53474423576348) scale(1,0.25411875604401096)"/><path d="m 9.421875,-8.5h -18.8125 l -2.96875,8.5 h -12.09375 l 17.28125,-46.65625 H 7.171875 L 24.453125,0 h -12.09375 z m -15.8125,-8.65625 h 12.78125 l -6.375,-18.5625 z" fill="green" transform="translate(905,83.82880643356293) scale(1,0.27722046113892107)"/></g><g font-family="Courier, monospace" font-size="12px" font-weight="bolder" text-anchor="middle"><polyline fill="none" points="20.5,100.5 25.5,100.5 25.5,50.5 20.5,50.5 25.5,50.5 25.5,5.5 20.5,5.5" stroke="black" stroke-width="1"/><text text-anchor="end" x="20" y="104">0</text><text text-anchor="end" x="20" y="54">1</text><text text-anchor="end" x="20" y="9">2</text><text transform="rotate(-90) translate(-50, 10)">bits</text><text text-anchor="end" transform="translate(58.5,105.5) rotate(-90)">1</text><text text-anchor="end" transform="translate(108.5,105.5) rotate(-90)">*2</text><text text-anchor="end" transform="translate(158.5,105.5) rotate(-90)">*3</text><text text-anchor="end" transform="translate(208.5,105.5) rotate(-90)">4</text><text text-anchor="end" transform="translate(258.5,105.5) rotate(-90)">5</text><text text-anchor="end" transform="translate(308.5,105.5) rotate(-90)">6</text><text text-anchor="end" transform="translate(358.5,105.5) rotate(-90)">7</text><text text-anchor="end" transform="translate(408.5,105.5) rotate(-90)">8</text><text text-anchor="end" transform="translate(458.5,105.5) rotate(-90)">9</text><text text-anchor="end" transform="translate(508.5,105.5) rotate(-90)">10</text><text text-anchor="end" transform="translate(558.5,105.5) rotate(-90)">11</text><text text-anchor="end" transform="translate(608.5,105.5) rotate(-90)">12</text><text text-anchor="end" transform="translate(658.5,105.5) rotate(-90)">13</text><text text-anchor="end" transform="translate(708.5,105.5) rotate(-90)">*14</text><text text-anchor="end" transform="translate(758.5,105.5) rotate(-90)">*15</text><text text-anchor="end" transform="translate(808.5,105.5) rotate(-90)">*16</text><text text-anchor="end" transform="translate(858.5,105.5) rotate(-90)">17</text><text text-anchor="end" transform="translate(908.5,105.5) rotate(-90)">18</text></g></svg>